# xmcd
#
# Track frame offsets:
#	150
#	18795
#	36229
#	53942
#	71497
#	87584
#	106896
#	124223
#	144537
#	164303
#	183706
#	202389
#	219809
#	237564
#	256221
#	274338
#
# Disc length: 3901 seconds
# Revision: 0
# Processed by: cddbd v1.5.2PL0 Copyright (c) Steve Scherf et al.
# Submitted via: dBpowerAMP V12.0
#
DISCID=f40f3b10
DTITLE=Les Tubes Zouk 2011 - Les Tubes Zouk 2011  
DYEAR=2011
DGENRE=World
TTITLE0=Stéphane Moreau - Pa Pé Dévwalé
TTITLE1=Lima - Madame La Coiffeuse 
TTITLE2=Jimmy Devarieux - Juste Histoire de...
TTITLE3=Lindsey Lins - Morgane De Toi
TTITLE4=Éleeza R - Tout En Douceur
TTITLE5=Eddy Borderan - Une Nuit De Folie
TTITLE6=Christiane Vallejo - Rien Ne Va Plus
TTITLE7=Shana- Le Bon Choix
TTITLE8=Cedric Chevignac Feat Skanky - Jen Fi Ou Dous
TTITLE9=Maelys - Ame Soeur
TTITLE10=Steven Morris - Kombinézon
TTITLE11=Christian Nara - J'attends
TTITLE12=Sadji - Parle Moi
TTITLE13=David Adams - Lanmou An Danjé
TTITLE14=Nawelle - Celle-là
TTITLE15=Herve Dachard - Plus D'une Fois
EXTD=
EXTT0=
EXTT1=
EXTT2=
EXTT3=
EXTT4=
EXTT5=
EXTT6=
EXTT7=
EXTT8=
EXTT9=
EXTT10=
EXTT11=
EXTT12=
EXTT13=
EXTT14=
EXTT15=
PLAYORDER=
